<svg width="512" height="512" viewBox="0 0 512 512" fill="none" xmlns="http://www.w3.org/2000/svg">
  <!-- Bilibili TV Base -->
  <g color="#00AEEC">
    <!-- Antennas -->
    <path d="M165 145 L128 68 C126 64 128 58 132 55 C136 52 142 52 145 56 L182 135" stroke="currentColor" stroke-width="36" stroke-linecap="round" stroke-linejoin="round"/>
    <path d="M347 145 L384 68 C386 64 384 58 380 55 C376 52 370 52 367 56 L330 135" stroke="currentColor" stroke-width="36" stroke-linecap="round" stroke-linejoin="round"/>
    <!-- Body -->
    <rect x="56" y="136" width="400" height="280" rx="75" fill="currentColor" />
  </g>

  <!-- Pin Icon (White, from project src/ui/injectPinButtons.ts) -->
  <!-- Centered in TV Body (256, 276) -->
  <!-- Original viewbox 24x24. Scaling up by 11. Center offset -12 -->
  <g transform="translate(256, 276) scale(11) translate(-12, -12)" fill="#FFFFFF">
     <path d="M15.113 3.21l.094 .083l5.5 5.5a1 1 0 0 1 -1.175 1.59l-3.172 3.171l-1.424 3.797a1 1 0 0 1 -.158 .277l-.07 .08l-1.5 1.5a1 1 0 0 1 -1.32 .082l-.095 -.083l-2.793 -2.792l-3.793 3.792a1 1 0 0 1 -1.497 -1.32l.083 -.094l3.792 -3.793l-2.792 -2.793a1 1 0 0 1 -.083 -1.32l.083 -.094l1.5 -1.5a1 1 0 0 1 .258 -.187l.098 -.042l3.796 -1.425l3.171 -3.17a1 1 0 0 1 1.497 -1.26z" />
  </g>
</svg>
